<?xml version="1.0" encoding="utf-8"?>
<!-- Generator: Adobe Illustrator 23.0.1, SVG Export Plug-In . SVG Version: 6.00 Build 0)  -->
<svg version="1.1" id="Layer_1" xmlns="http://www.w3.org/2000/svg" xmlns:xlink="http://www.w3.org/1999/xlink" x="0px" y="0px"
	 viewBox="0 0 512 512" style="enable-background:new 0 0 512 512;" xml:space="preserve">
<style type="text/css">
	.st0{fill:#FF5A64;}
	.st1{fill:#D74B55;}
	.st2{fill:#C8414B;}
	.st3{stroke:#000000;stroke-width:2;stroke-miterlimit:10;}
</style>
<path class="st0" d="M483.9,66.9c-3.4-20.1-18.3-36.4-38.2-41.3L375.7,8H136.3l-70,17.5c-19.8,5-34.8,21.2-38.2,41.3L8,187.6
	l94.1,34.2V504h307.8V221.8l94.1-34.2L483.9,66.9z"/>
<g>
	<path class="st1" d="M136.3,8c0,66.1,53.6,119.7,119.7,119.7S375.7,74.1,375.7,8H136.3z"/>
	<path class="st1" d="M84.5,84.5L40.8,40.8c-6.5,7.2-11,16.1-12.7,26.1L8,187.6l94.1,34.2v-94.9C102.1,111,95.8,95.8,84.5,84.5z"/>
</g>
<path class="st2" d="M341.5,8c0,47.2-38.3,85.5-85.5,85.5S170.5,55.2,170.5,8"/>
<polygon class="st0" points="13.3,155.6 8,187.6 102.1,221.8 102.1,187.6 "/>
<path class="st1" d="M427.5,84.5l43.7-43.7c6.5,7.2,11,16.1,12.7,26.1L504,187.6l-94.1,34.2v-94.9C409.9,111,416.2,95.8,427.5,84.5z
	"/>
<polygon class="st0" points="498.7,155.6 504,187.6 409.9,221.8 409.9,187.6 "/>
<rect x="102.1" y="469.8" class="st1" width="307.8" height="34.2"/>
<path class="st0" d="M273.1,50.8h-34.2c-4.7,0-8.6-3.8-8.6-8.6l0,0c0-4.7,3.8-8.6,8.6-8.6h34.2c4.7,0,8.6,3.8,8.6,8.6l0,0
	C281.7,46.9,277.8,50.8,273.1,50.8z"/>
<g>
	<polygon class="st1" points="76.4,212.5 102.1,221.8 102.1,187.6 76.4,178.4 	"/>
	<polygon class="st1" points="435.6,212.5 409.9,221.8 409.9,187.6 435.6,178.4 	"/>
</g>
<g>
	<path class="st2" d="M102.1,126.9c0-1.2,0-2.4-0.1-3.6c-0.1-2.3-2-4.1-4.3-4.1h-4.2c-9.4,0-17.1,7.7-17.1,17.1v42.1l25.7,9.2
		L102.1,126.9L102.1,126.9L102.1,126.9z"/>
	<path class="st2" d="M435.6,136.3c0-9.4-7.7-17.1-17.1-17.1h-4.2c-2.3,0-4.1,1.8-4.3,4.1c-0.1,1.2-0.1,2.4-0.1,3.6v60.7l25.7-9.2
		L435.6,136.3L435.6,136.3L435.6,136.3z"/>
</g>
<path d="M511.9,186.3L491.8,65.5c-3.9-23.3-21.2-42.1-44.1-47.8L392,3.8C381.8,1.3,371.4,0,361,0H151c-10.4,0-20.9,1.3-31,3.8
	L64.4,17.7c-22.9,5.7-40.2,24.5-44.1,47.8L0.1,186.3c-0.6,3.8,1.5,7.5,5.2,8.9l88.8,32.3V504c0,4.4,3.6,8,8,8h307.8c4.4,0,8-3.6,8-8
	V227.4l88.8-32.3C510.4,193.8,512.5,190.1,511.9,186.3z M333.1,16c-4,39-37.1,69.5-77.1,69.5S182.9,55,178.9,16
	C178.9,16,333.1,16,333.1,16z M162.8,16c4.1,47.8,44.3,85.5,93.2,85.5s89.1-37.7,93.2-85.5H361c2.1,0,4.3,0.1,6.4,0.2
	c-2,27.1-13.6,52.3-33.1,71.5c-21,20.7-48.8,32-78.3,32c-29.4,0-57.1-11.3-78.1-31.8c-19.6-19.2-31.4-44.5-33.3-71.7
	c2.1-0.1,4.3-0.2,6.4-0.2L162.8,16L162.8,16z M68.2,33.3l55.7-13.9c1.6-0.4,3.2-0.7,4.8-1.1c2.4,30.8,15.8,59.3,38,81.1
	c24,23.5,55.7,36.4,89.3,36.4c33.7,0,65.5-13,89.5-36.6c22.1-21.7,35.4-50.2,37.8-80.8c1.6,0.3,3.2,0.7,4.8,1.1l55.7,13.9
	c16.7,4.2,29.4,17.9,32.2,34.9l13.7,82.2l-71.7,25.8v-48.5c0-4.4-3.6-8-8-8s-8,3.6-8,8v334H110.1v-334c0-4.4-3.6-8-8-8s-8,3.6-8,8
	v48.5l-71.7-25.8L36,68.2C38.9,51.2,51.5,37.5,68.2,33.3z M17,182.3l2.6-15.9l74.4,26.8v17.1L17,182.3z M110.1,496v-18.2h291.8V496
	H110.1z M417.9,210.4v-17.1l74.4-26.8l2.6,15.9L417.9,210.4z"/>
<path class="st1" d="M294.1,235c-2.1-0.6-4.3-0.6-6.4-0.1l-7-12.2l-5.8,3.3l7,12.2c-1.5,1.5-2.6,3.4-3.2,5.5
	c-0.9,3.2-0.4,6.6,1.2,9.5l3.5,6.1c1.7,2.9,4.4,5,7.6,5.9c1.1,0.3,2.2,0.4,3.3,0.4c1,0,2.1-0.1,3.1-0.4l1.4,2.4
	c-3.9,3.9-4.8,10.1-2,15.1l3.5,6.1c1.7,2.9,4.4,5,7.6,5.9c1.1,0.3,2.2,0.4,3.3,0.4c1,0,2.1-0.1,3.1-0.4l7,12.3l5.8-3.3l-7-12.3
	c3.9-3.9,4.8-10.1,2-15.1l-3.5-6.1c-2.9-5-8.7-7.3-14-5.9l-1.4-2.4c1.5-1.5,2.6-3.4,3.2-5.5c0.9-3.2,0.4-6.6-1.2-9.5l-3.5-6.1
	C300,238,297.3,235.9,294.1,235z M312.8,273.8l3.5,6.1c1,1.7,1,3.7,0.2,5.4l-2-3.4l-5.8,3.3l2,3.4c-0.3,0-0.7-0.1-1-0.2
	c-1.5-0.4-2.8-1.4-3.5-2.7l-3.5-6.1c-1-1.7-1-3.7-0.2-5.4l2,3.5l5.8-3.3l-2-3.5C310.1,271,311.8,272.1,312.8,273.8z M297.6,252.3
	l-5.8,3.3l2,3.4c-0.3,0-0.7-0.1-1-0.2c-1.5-0.4-2.8-1.4-3.5-2.7l-3.5-6.1c-0.8-1.4-1-2.9-0.6-4.4c0.1-0.3,0.2-0.6,0.3-0.9l2,3.5
	l5.8-3.3l-2-3.5c1.8,0.2,3.5,1.2,4.5,2.9l3.5,6.1c0.8,1.4,1,2.9,0.6,4.4c-0.1,0.3-0.2,0.6-0.3,0.9L297.6,252.3z"/>
<path class="st1" d="M191.3,307.3l7-12.3c1,0.3,2,0.4,3.1,0.4c4.4,0,8.6-2.3,10.9-6.3l3.5-6.1c1.7-2.9,2.1-6.3,1.2-9.5
	c-0.6-2.1-1.7-4-3.2-5.5l1.4-2.4c1,0.3,2,0.4,3.1,0.4c4.4,0,8.6-2.3,10.9-6.3l3.5-6.1c2.9-5,1.9-11.2-2-15.1l7-12.2l-5.8-3.3
	l-7,12.2c-5.3-1.4-11.1,0.9-14,5.9l-3.5,6.1c-2.9,5-1.9,11.2,2,15.1l-1.4,2.4c-2.1-0.5-4.3-0.5-6.4,0.1c-3.2,0.9-5.9,3-7.6,5.9
	l-3.5,6.1c-2.9,5-1.9,11.2,2,15.1l-7,12.3L191.3,307.3z M212.7,254.8c-0.4-1.5-0.2-3.1,0.6-4.4l3.5-6.1c1-1.7,2.7-2.7,4.5-2.9
	l-2,3.5l5.8,3.3l2-3.5c0.8,1.7,0.8,3.7-0.2,5.4l-3.5,6.1c-1,1.7-2.7,2.7-4.5,2.9l2-3.4l-5.8-3.3l-2,3.4
	C212.9,255.4,212.8,255.1,212.7,254.8z M196.4,279.9l3.5-6.1c0.8-1.4,2-2.3,3.5-2.7c0.3-0.1,0.6-0.1,1-0.2l-2,3.5l5.8,3.3l2-3.5
	c0.8,1.7,0.8,3.7-0.2,5.4l-3.5,6.1c-1,1.7-2.7,2.7-4.5,2.9l2-3.4l-5.8-3.3l-2,3.4C195.4,283.6,195.4,281.6,196.4,279.9z"/>
<path class="st1" d="M290.1,342.7l14.1,0l0-6.7l-14.1,0c-1.5-5.3-6.4-9.2-12.1-9.2h0l-7.1,0c-5.8,0-10.6,3.9-12.1,9.2l-2.8,0
	c-0.6-2.1-1.7-4-3.2-5.5c-2.4-2.4-5.5-3.7-8.9-3.7h0l-7.1,0c-3.4,0-6.5,1.3-8.9,3.7c-1.6,1.6-2.6,3.5-3.2,5.5l-14.2,0l0,6.7l14.2,0
	c1.5,5.3,6.4,9.2,12.1,9.2h0l7.1,0c3.4,0,6.5-1.3,8.9-3.7c1.6-1.6,2.6-3.5,3.2-5.5l2.8,0c0.6,2.1,1.7,4,3.2,5.5
	c2.4,2.4,5.5,3.7,8.9,3.7h0l7.1,0c3.4,0,6.5-1.3,8.9-3.7C288.5,346.7,289.6,344.8,290.1,342.7z M248.1,343.6
	c-1.1,1.1-2.6,1.7-4.1,1.7l-7.1,0h0c-2,0-3.7-1-4.7-2.5l3.9,0l0-6.7l-3.9,0c0.2-0.3,0.4-0.5,0.6-0.8c1.1-1.1,2.6-1.7,4.1-1.7l7.1,0
	h0c1.6,0,3,0.6,4.1,1.7c0.2,0.2,0.5,0.5,0.6,0.8l-4,0l0,6.7l4,0C248.5,343.1,248.3,343.3,248.1,343.6z M278,345.2l-7.1,0h0
	c-1.6,0-3-0.6-4.1-1.7c-0.2-0.2-0.5-0.5-0.6-0.8l3.9,0l0-6.7l-3.9,0c1.1-1.5,2.8-2.5,4.8-2.5l7.1,0h0c2,0,3.7,1,4.7,2.5l-4,0l0,6.7
	l4,0c-0.2,0.3-0.4,0.5-0.6,0.8C281,344.6,279.6,345.2,278,345.2z"/>
<path class="st1" d="M259.7,251.2v-37.3l32.3-18.7l-3.4-5.8l-32.3,18.7L224,189.5l-3.4,5.8l32.3,18.7v37.3H259.7z"/>
<path class="st1" d="M357,307.6l-32.3,18.7l-32.3-18.6l-3.4,5.8l32.3,18.6l0,37.3l6.7,0l0-37.3l32.3-18.7L357,307.6z"/>
<path class="st1" d="M191.1,369.1v-37.3l32.3-18.7l-3.4-5.8L187.7,326l-32.3-18.7l-3.4,5.8l32.3,18.7v37.3H191.1z"/>
<path class="st1" d="M216.7,189.1l39.6-22.9l39.6,22.9V231h6.7v-45.8l-46.3-26.8L210,185.2V231h6.7V189.1z"/>
<path class="st1" d="M256.3,265.5l18.6-10.7l-3.4-5.8l-15.2,8.8l-15.2-8.8l-3.4,5.8L256.3,265.5z"/>
<path class="st1" d="M187.7,375.6l-39.6-22.9V307l36.8-21.2l-3.4-5.8l-40.2,23.2v53.5l46.3,26.8l42.8-24.7l-3.4-5.8L187.7,375.6z"/>
<path class="st1" d="M234.1,322.4v-19.3L216,292.7l-3.4,5.8l14.7,8.5v15.4H234.1z"/>
<path class="st1" d="M371,303.3l-40-23l-3.4,5.8l36.6,21.1l0,45.7l-39.6,22.9L286,353.5l-3.4,5.8l42.1,24.3l46.3-26.8L371,303.3z"/>
<path class="st1" d="M296.7,292.8l-18.4,10.6l0,18.2l6.7,0l0-14.3l15-8.7L296.7,292.8z"/>
<path class="st1" d="M235.2,191.5l-3.4-5.8l5.8-3.4l3.4,5.8L235.2,191.5z M275.1,190.1l-18.8-10.9l-1.7,1l-3.4-5.8l5.1-2.9
	l22.2,12.8L275.1,190.1z M244.9,185.9l-3.4-5.8l5.8-3.4l3.4,5.8L244.9,185.9z"/>
<path class="st1" d="M337.6,363.2l-3.4-5.8l18.8-10.9l0-2l6.7,0l0,5.9L337.6,363.2z M353.1,340l0-6.7l6.7,0l0,6.7L353.1,340z
	 M353,328.8l0-6.7l6.7,0l0,6.7L353,328.8z"/>
<path class="st1" d="M177.2,364.3l-24.6-14.1v-7h6.7v3.2l21.2,12.2L177.2,364.3z M152.6,338.6v-6.7h6.7v6.7L152.6,338.6z
	 M159.4,327.4h-6.7v-6.7h6.7V327.4z"/>
<path d="M290.7,232.7c-2.1-0.6-4.3-0.6-6.4-0.1l-7-12.2l-5.8,3.3l7,12.2c-1.5,1.5-2.6,3.4-3.2,5.5c-0.9,3.2-0.4,6.6,1.2,9.5l3.5,6.1
	c1.7,2.9,4.4,5,7.6,5.9c1.1,0.3,2.2,0.4,3.3,0.4c1,0,2.1-0.1,3.1-0.4l1.4,2.4c-3.9,3.9-4.8,10.1-2,15.1l3.5,6.1
	c1.7,2.9,4.4,5,7.6,5.9c1.1,0.3,2.2,0.4,3.3,0.4c1,0,2.1-0.1,3.1-0.4l7,12.3l5.8-3.3l-7-12.3c3.9-3.9,4.8-10.1,2-15.1l-3.5-6.1
	c-2.9-5-8.7-7.3-14-5.9l-1.4-2.4c1.5-1.5,2.6-3.4,3.2-5.5c0.9-3.2,0.4-6.6-1.2-9.5l-3.5-6.1C296.6,235.7,293.9,233.6,290.7,232.7z
	 M309.3,271.5l3.5,6.1c1,1.7,1,3.7,0.2,5.4l-2-3.4l-5.8,3.3l2,3.4c-0.3,0-0.7-0.1-1-0.2c-1.5-0.4-2.8-1.4-3.5-2.7l-3.5-6.1
	c-1-1.7-1-3.7-0.2-5.4l2,3.5l5.8-3.3l-2-3.5C306.6,268.7,308.3,269.8,309.3,271.5z M294.2,250l-5.8,3.3l2,3.4c-0.3,0-0.7-0.1-1-0.2
	c-1.5-0.4-2.8-1.4-3.5-2.7l-3.5-6.1c-0.8-1.4-1-2.9-0.6-4.4c0.1-0.3,0.2-0.6,0.3-0.9l2,3.5l5.8-3.3l-2-3.5c1.8,0.2,3.5,1.2,4.5,2.9
	l3.5,6.1c0.8,1.4,1,2.9,0.6,4.4c-0.1,0.3-0.2,0.6-0.3,0.9L294.2,250z"/>
<path d="M187.9,305l7-12.3c1,0.3,2,0.4,3.1,0.4c4.4,0,8.6-2.3,10.9-6.3l3.5-6.1c1.7-2.9,2.1-6.3,1.2-9.5c-0.6-2.1-1.7-4-3.2-5.5
	l1.4-2.4c1,0.3,2,0.4,3.1,0.4c4.4,0,8.6-2.3,10.9-6.3l3.5-6.1c2.9-5,1.9-11.2-2-15.1l7-12.2l-5.8-3.3l-7,12.2
	c-5.3-1.4-11.1,0.9-14,5.9l-3.5,6.1c-2.9,5-1.9,11.2,2,15.1l-1.4,2.4c-2.1-0.5-4.3-0.5-6.4,0.1c-3.2,0.9-5.9,3-7.6,5.9l-3.5,6.1
	c-2.9,5-1.9,11.2,2,15.1l-7,12.3L187.9,305z M209.3,252.5c-0.4-1.5-0.2-3.1,0.6-4.4l3.5-6.1c1-1.7,2.7-2.7,4.5-2.9l-2,3.5l5.8,3.3
	l2-3.5c0.8,1.7,0.8,3.7-0.2,5.4l-3.5,6.1c-1,1.7-2.7,2.7-4.5,2.9l2-3.4l-5.8-3.3l-2,3.4C209.5,253.1,209.3,252.8,209.3,252.5z
	 M192.9,277.6l3.5-6.1c0.8-1.4,2-2.3,3.5-2.7c0.3-0.1,0.6-0.1,1-0.2l-2,3.5l5.8,3.3l2-3.5c0.8,1.7,0.8,3.7-0.2,5.4l-3.5,6.1
	c-1,1.7-2.7,2.7-4.5,2.9l2-3.4l-5.8-3.3l-2,3.4C191.9,281.3,191.9,279.3,192.9,277.6z"/>
<path d="M286.7,340.4l14.1,0l0-6.7l-14.1,0c-1.5-5.3-6.4-9.2-12.1-9.2h0l-7.1,0c-5.8,0-10.6,3.9-12.1,9.2l-2.8,0
	c-0.6-2.1-1.7-4-3.2-5.5c-2.4-2.4-5.5-3.7-8.9-3.7h0l-7.1,0c-3.4,0-6.5,1.3-8.9,3.7c-1.6,1.6-2.6,3.5-3.2,5.5l-14.2,0l0,6.7l14.2,0
	c1.5,5.3,6.4,9.2,12.1,9.2h0l7.1,0c3.4,0,6.5-1.3,8.9-3.7c1.6-1.6,2.6-3.5,3.2-5.5l2.8,0c0.6,2.1,1.7,4,3.2,5.5
	c2.4,2.4,5.5,3.7,8.9,3.7h0l7.1,0c3.4,0,6.5-1.3,8.9-3.7C285,344.4,286.1,342.5,286.7,340.4z M244.7,341.3c-1.1,1.1-2.6,1.7-4.1,1.7
	l-7.1,0h0c-2,0-3.7-1-4.7-2.5l3.9,0l0-6.7l-3.9,0c0.2-0.3,0.4-0.5,0.6-0.8c1.1-1.1,2.6-1.7,4.1-1.7l7.1,0h0c1.6,0,3,0.6,4.1,1.7
	c0.2,0.2,0.5,0.5,0.6,0.8l-4,0l0,6.7l4,0C245.1,340.8,244.9,341.1,244.7,341.3z M274.6,342.9l-7.1,0h0c-1.6,0-3-0.6-4.1-1.7
	c-0.2-0.2-0.5-0.5-0.6-0.8l3.9,0l0-6.7l-3.9,0c1.1-1.5,2.8-2.5,4.8-2.5l7.1,0h0c2,0,3.7,1,4.7,2.5l-4,0l0,6.7l4,0
	c-0.2,0.3-0.4,0.5-0.6,0.8C277.6,342.3,276.1,342.9,274.6,342.9z"/>
<path d="M256.2,249v-37.3l32.3-18.7l-3.4-5.8l-32.3,18.7l-32.3-18.7l-3.4,5.8l32.3,18.7V249H256.2z"/>
<path d="M353.5,305.3l-32.3,18.7l-32.3-18.6l-3.4,5.8l32.3,18.6l0,37.3l6.7,0l0-37.3l32.3-18.7L353.5,305.3z"/>
<path d="M187.7,366.8v-37.3l32.3-18.7l-3.4-5.8l-32.3,18.7L152,305l-3.4,5.8l32.3,18.7v37.3H187.7z"/>
<path class="st3" d="M213.3,186.8l39.6-22.9l39.6,22.9v41.9h6.7V183l-46.3-26.8L206.5,183v45.8h6.7V186.8z"/>
<path class="st3" d="M252.9,263.2l18.6-10.7l-3.4-5.8l-15.2,8.8l-15.2-8.8l-3.4,5.8L252.9,263.2z"/>
<path class="st3" d="M184.3,373.3l-39.6-22.9v-45.7l36.8-21.2l-3.4-5.8L138,300.8v53.5l46.3,26.8l42.8-24.7l-3.4-5.8L184.3,373.3z"
	/>
<path class="st3" d="M230.6,320.1v-19.3l-18.1-10.4l-3.4,5.8l14.7,8.5v15.4H230.6z"/>
<path class="st3" d="M367.6,301l-40-23l-3.4,5.8l36.6,21.1l0,45.7l-39.6,22.9l-38.7-22.3l-3.4,5.8l42.1,24.3l46.3-26.8L367.6,301z"
	/>
<path class="st3" d="M293.3,290.5l-18.4,10.6l0,18.2l6.7,0l0-14.3l15-8.7L293.3,290.5z"/>
<path d="M231.7,189.2l-3.4-5.8l5.8-3.4l3.4,5.8L231.7,189.2z M271.7,187.8l-18.8-10.9l-1.7,1l-3.4-5.8l5.1-2.9l22.2,12.8
	L271.7,187.8z M241.4,183.6l-3.4-5.8l5.8-3.4l3.4,5.8L241.4,183.6z"/>
<path d="M334.2,360.9l-3.4-5.8l18.8-10.9l0-2l6.7,0l0,5.9L334.2,360.9z M349.6,337.7l0-6.7l6.7,0l0,6.7L349.6,337.7z M349.6,326.5
	l0-6.7l6.7,0l0,6.7L349.6,326.5z"/>
<path d="M173.8,362l-24.6-14.1v-7h6.7v3.2l21.2,12.2L173.8,362z M149.2,336.3v-6.7h6.7v6.7L149.2,336.3z M155.9,325.1h-6.7v-6.7h6.7
	V325.1z"/>
</svg>
